<?xml version="1.0" encoding="utf-8"?>
<!-- Generator: Adobe Illustrator 23.1.1, SVG Export Plug-In . SVG Version: 6.00 Build 0)  -->
<svg version="1.1" id="Layer_1" xmlns="http://www.w3.org/2000/svg" xmlns:xlink="http://www.w3.org/1999/xlink" x="0px" y="0px"
	 viewBox="0 0 100 100" style="enable-background:new 0 0 100 100;" xml:space="preserve">
<path d="M57.07,50l14.14-14.14c1.95-1.95,1.95-5.12,0-7.07c-1.95-1.95-5.12-1.95-7.07,0L50,42.93L35.86,28.79
	c-1.95-1.95-5.12-1.95-7.07,0c-1.95,1.95-1.95,5.12,0,7.07L42.93,50L28.79,64.14c-1.95,1.95-1.95,5.12,0,7.07
	c0.98,0.98,2.26,1.46,3.54,1.46s2.56-0.49,3.54-1.46L50,57.07l14.14,14.14c0.98,0.98,2.26,1.46,3.54,1.46s2.56-0.49,3.54-1.46
	c1.95-1.95,1.95-5.12,0-7.07L57.07,50z"/>
<path d="M50,0C22.39,0,0,22.39,0,50s22.39,50,50,50s50-22.39,50-50S77.61,0,50,0z M50,90c-22.06,0-40-17.94-40-40
	c0-22.06,17.94-40,40-40s40,17.94,40,40C90,72.06,72.06,90,50,90z"/>
</svg>
