<svg xmlns="http://www.w3.org/2000/svg" viewBox="0 0 100 100"><path class="iconColor" d="M57.1 50l14.1-14.1c2-1.9 2-5.1 0-7.1 -1.9-1.9-5.1-1.9-7.1 0L50 42.9 35.9 28.8c-1.9-1.9-5.1-1.9-7.1 0 -1.9 2-1.9 5.1 0 7.1L42.9 50 28.8 64.1c-1.9 2-1.9 5.1 0 7.1 1 1 2.3 1.5 3.5 1.5s2.6-0.5 3.5-1.5L50 57.1l14.1 14.1c1 1 2.3 1.5 3.5 1.5s2.6-0.5 3.5-1.5c2-1.9 2-5.1 0-7.1L57.1 50z"/><path class="iconColor" d="M50 0C22.4 0 0 22.4 0 50s22.4 50 50 50 50-22.4 50-50S77.6 0 50 0zM50 90c-22.1 0-40-17.9-40-40 0-22.1 17.9-40 40-40s40 17.9 40 40C90 72.1 72.1 90 50 90z"/></svg>